<svg xmlns="http://www.w3.org/2000/svg" viewBox="0 0 1607.64 260.08"><path d="M31.31 132.88l102.09 41.41v32.07L0 144.34v-23.89l133.4-61.86v32.07z" fill="#0f7ff0"/><path d="M186.9 258.73H161L260.12 0h25.77z" fill="#ff8c00"/><path d="M425.33 131.9l-107.8-42.38v-31.1l139.27 61.86v23.89l-139.27 62v-31.39zM668.45 157.19q-3.18 27.08-20.06 41.78t-44.89 14.7q-30.35 0-48.65-21.68t-18.29-58v-16.41q0-23.79 8.53-41.84T569.27 48q15.65-9.68 36.23-9.67 27.3 0 43.77 15.18t19.18 42h-22.71Q642.8 75.09 633 65.93t-27.5-9.17q-21.64 0-33.94 15.95t-12.29 45.39v16.54q0 27.8 11.64 44.22t32.59 16.41q18.82 0 28.89-8.49t13.35-29.59zM690.09 146.76q0-18.63 7.36-33.52a54.73 54.73 0 0120.47-23q13.11-8.08 29.94-8.08 26 0 42.06 17.93T806 147.81v1.53q0 18.51-7.12 33.22a54 54 0 01-20.35 22.91q-13.25 8.21-30.42 8.2-25.87 0-41.94-17.93t-16.06-47.46zm21.91 2.58q0 21.09 9.82 33.86t26.27 12.8q16.59 0 26.36-12.95t9.76-36.27q0-20.86-9.94-33.81t-26.41-13a31.3 31.3 0 00-26 12.77q-9.86 12.81-9.86 36.6zM828 146.88q0-29.19 13.88-46.94t36.36-17.75q22.35 0 35.41 15.23V31.33h21.76v180h-20l-1.06-13.59q-13.07 15.93-36.35 15.93-22.12 0-36.06-18T828 148.52zm21.76 2.46q0 21.56 9 33.75t24.7 12.18q20.72 0 30.24-18.51v-58.24q-9.76-17.94-30-17.93-16 0-24.94 12.3t-9.02 36.45zM1022 213.67q-25.87 0-42.12-16.93t-16.23-45.29v-4q0-18.87 7.23-33.69a56.29 56.29 0 0120.24-23.2 51 51 0 0128.18-8.38q24.81 0 38.59 16.29t13.76 46.64v9h-86.26q.48 18.75 11 30.29t26.77 11.6q11.53 0 19.53-4.69a49.06 49.06 0 0014-12.42l13.31 10.29q-16 24.5-48 24.49zM1019.28 100a29.1 29.1 0 00-22.12 9.55q-8.94 9.56-11.06 26.78h63.77v-1.64q-.94-16.53-8.95-25.61t-21.64-9.08zM1143.75 132l-20.94 21.68v57.66h-22.59V40.7h22.59v84.38l76.12-84.38h27.29l-67.41 75.36 72.71 95.27h-27.06zM1297.64 213.67q-25.89 0-42.12-16.93t-16.24-45.29v-4q0-18.87 7.24-33.69a56.2 56.2 0 0120.23-23.2 51 51 0 0128.18-8.38q24.83 0 38.59 16.29t13.76 46.64v9h-86.23q.46 18.75 11 30.29t26.76 11.6q11.54 0 19.53-4.69a49.06 49.06 0 0014-12.42l13.3 10.31q-16 24.48-48 24.47zM1294.93 100a29.1 29.1 0 00-22.12 9.55q-8.94 9.56-11.06 26.78h63.77v-1.64q-.94-16.53-8.94-25.61t-21.65-9.08zM1425.28 213.67q-25.87 0-42.11-16.93t-16.24-45.29v-4q0-18.87 7.24-33.69a56.2 56.2 0 0120.23-23.2 51 51 0 0128.18-8.38q24.83 0 38.59 16.29t13.76 46.64v9h-86.23q.46 18.75 11 30.29t26.76 11.6q11.54 0 19.53-4.69a49.06 49.06 0 0014-12.42l13.3 10.31q-16 24.48-48.01 24.47zm-2.7-113.67a29.1 29.1 0 00-22.12 9.55q-8.94 9.56-11.06 26.78h63.77v-1.64q-.95-16.53-8.94-25.61t-21.65-9.08zM1607.64 149.34q0 28.93-13.29 46.64t-36 17.69q-23.19 0-36.48-14.65v61.06h-21.76V84.53H1520l1.06 14.06q13.29-16.4 36.94-16.4 23 0 36.3 17.23t13.35 47.92zm-21.76-2.46q0-21.45-9.18-33.87t-25.18-12.42q-19.76 0-29.65 17.46v60.58q9.77 17.35 29.89 17.35 15.65 0 24.88-12.37t9.24-36.73z" fill="#0f7ff0"/></svg>
